<?xml version="1.0" standalone="no"?>
<!DOCTYPE svg PUBLIC "-//W3C//DTD SVG 20010904//EN"
 "http://www.w3.org/TR/2001/REC-SVG-20010904/DTD/svg10.dtd">
<svg version="1.0" xmlns="http://www.w3.org/2000/svg"
 width="600.000000pt" height="600.000000pt" viewBox="0 0 600.000000 600.000000"
 preserveAspectRatio="xMidYMid meet">

<g transform="translate(0.000000,600.000000) scale(0.100000,-0.100000)"
fill="#000000" stroke="none">
<path d="M2795 4754 c-432 -64 -763 -227 -1050 -518 -249 -253 -406 -549 -476
-896 -27 -131 -37 -423 -20 -556 27 -204 184 -421 379 -523 115 -59 205 -82
352 -88 194 -8 379 24 578 101 l87 33 -50 31 c-28 18 -98 57 -157 88 -60 31
-108 60 -108 65 0 13 65 59 98 68 21 7 84 0 216 -22 l185 -31 173 170 c95 93
210 203 256 244 l84 74 -34 28 c-135 114 -451 269 -863 423 -99 37 -182 69
-184 70 -8 9 53 75 82 88 35 16 151 11 289 -13 l67 -12 64 46 c98 70 179 93
211 60 23 -22 20 -54 -9 -108 -18 -33 -21 -48 -12 -51 6 -3 63 -15 126 -29
l113 -24 47 35 c25 20 64 44 86 54 46 21 115 25 133 7 19 -19 14 -59 -12 -104
l-23 -41 168 -38 168 -37 238 178 c249 186 311 221 409 231 73 8 104 -12 104
-67 0 -104 -50 -170 -305 -403 -183 -167 -221 -206 -223 -231 -2 -17 -1 -95 3
-174 6 -128 9 -143 24 -136 9 3 39 9 68 11 45 5 52 3 63 -17 21 -40 -3 -93
-79 -173 l-68 -72 5 -128 c4 -113 7 -127 21 -121 172 74 200 -42 47 -190 l-64
-62 -3 -144 c-4 -124 -7 -150 -25 -180 -22 -39 -101 -97 -113 -84 -4 5 -15 61
-25 124 -62 411 -187 879 -271 1006 l-16 24 -67 -53 c-62 -50 -292 -215 -442
-318 l-65 -45 -6 -194 c-3 -107 -6 -196 -7 -198 -11 -16 -87 -92 -93 -92 -4 0
-26 58 -48 128 -22 70 -48 145 -56 166 l-16 39 -42 -40 c-227 -215 -532 -370
-817 -415 -44 -7 -80 -15 -79 -18 1 -10 130 -113 211 -167 177 -118 413 -217
633 -263 129 -27 411 -38 551 -21 761 93 1364 649 1524 1406 31 145 38 430 16
585 -110 751 -644 1324 -1386 1487 -99 21 -145 25 -325 28 -115 2 -223 1 -240
-1z"/>
</g>
</svg>
